<?xml version="1.0" standalone="no"?>
<!DOCTYPE svg PUBLIC "-//W3C//DTD SVG 20010904//EN"
 "http://www.w3.org/TR/2001/REC-SVG-20010904/DTD/svg10.dtd">
<svg version="1.0" xmlns="http://www.w3.org/2000/svg"
 width="512.000000pt" height="512.000000pt" viewBox="0 0 512.000000 512.000000"
 preserveAspectRatio="xMidYMid meet">

<g transform="translate(0.000000,512.000000) scale(0.100000,-0.100000)"
fill="#000000" stroke="none">
<path d="M2483 4190 c-50 -21 -54 -43 -51 -254 3 -187 4 -196 25 -218 29 -29
87 -28 117 1 20 21 21 31 21 226 0 191 -1 206 -20 224 -25 24 -63 33 -92 21z"/>
<path d="M1648 3950 c-24 -24 -29 -37 -25 -58 8 -39 173 -323 204 -350 48 -44
128 -5 126 60 0 34 -152 308 -196 356 -30 32 -72 29 -109 -8z"/>
<path d="M3273 3958 c-32 -34 -193 -317 -200 -349 -4 -22 1 -35 25 -59 36 -36
71 -39 106 -7 31 28 206 333 206 359 0 11 -13 33 -29 49 -36 36 -79 38 -108 7z"/>
<path d="M2400 3484 c-70 -9 -206 -47 -280 -78 -506 -214 -738 -821 -508
-1327 l30 -67 -30 -63 c-52 -110 -67 -180 -66 -319 1 -106 5 -137 26 -202 40
-119 92 -204 182 -293 129 -127 249 -185 430 -206 59 -7 361 -9 861 -7 763 3
771 4 835 25 98 34 185 90 259 168 147 156 202 359 152 557 -50 196 -193 361
-368 427 -52 19 -60 26 -77 67 -57 139 -177 275 -333 379 -2 1 -8 37 -14 80
-55 402 -351 733 -745 836 -78 20 -274 33 -354 23z m365 -202 c222 -75 388
-220 493 -429 26 -50 72 -188 72 -214 0 -3 -26 0 -57 8 -91 23 -290 20 -388
-6 -155 -41 -295 -123 -408 -239 l-58 -59 -52 10 c-75 14 -230 2 -312 -23 -90
-28 -187 -79 -250 -131 l-49 -40 -17 45 c-60 152 -65 380 -11 546 78 238 246
418 478 511 122 49 183 59 334 55 119 -3 145 -6 225 -34z m490 -798 c178 -46
357 -194 434 -360 23 -49 47 -100 54 -113 8 -16 29 -29 68 -41 134 -41 244
-135 302 -257 30 -63 32 -76 32 -173 0 -85 -4 -116 -23 -165 -43 -115 -147
-221 -259 -266 l-58 -24 -830 0 -830 0 -65 23 c-392 141 -509 632 -219 923
140 141 367 202 549 148 58 -18 82 -6 143 70 170 210 442 301 702 235z"/>
<path d="M1059 3361 c-31 -32 -38 -75 -16 -103 18 -24 342 -208 365 -208 55 0
98 79 68 125 -17 26 -341 215 -370 215 -9 0 -31 -13 -47 -29z"/>
<path d="M3744 3300 c-87 -50 -169 -102 -181 -116 -32 -35 -29 -70 7 -106 24
-24 37 -29 58 -25 32 7 316 169 350 200 31 29 29 72 -7 108 -16 16 -38 29 -49
29 -10 0 -90 -41 -178 -90z"/>
<path d="M864 2570 c-29 -11 -54 -49 -54 -78 0 -13 13 -37 30 -53 l30 -30 199
3 c230 3 241 7 241 83 0 76 -12 80 -234 82 -105 1 -201 -2 -212 -7z"/>
<path d="M3760 2567 c-54 -28 -61 -99 -13 -137 24 -18 41 -20 219 -20 189 0
194 1 220 24 36 30 39 86 6 119 -22 21 -31 22 -215 25 -142 2 -198 -1 -217
-11z"/>
<path d="M1355 1919 c-109 -59 -283 -163 -302 -182 -44 -40 -19 -117 41 -133
28 -7 41 0 229 108 148 86 173 110 162 157 -13 61 -69 83 -130 50z"/>
</g>
</svg>
